<?xml version="1.0" encoding="UTF-8" standalone="no"?>
<svg
   version="1.0"
   width="728.000000pt"
   height="1024.000000pt"
   viewBox="0 0 728.000000 1024.000000"
   preserveAspectRatio="xMidYMid meet"
   id="svg11"
   sodipodi:docname="Karte Bistum (3).svg"
   inkscape:version="1.3 (0e150ed, 2023-07-21)"
   xmlns:inkscape="http://www.inkscape.org/namespaces/inkscape"
   xmlns:sodipodi="http://sodipodi.sourceforge.net/DTD/sodipodi-0.dtd"
   xmlns="http://www.w3.org/2000/svg"
   xmlns:svg="http://www.w3.org/2000/svg">
  <defs
     id="defs11" />
  <sodipodi:namedview
     id="namedview11"
     pagecolor="#ffffff"
     bordercolor="#000000"
     borderopacity="0.25"
     inkscape:showpageshadow="2"
     inkscape:pageopacity="0.0"
     inkscape:pagecheckerboard="0"
     inkscape:deskcolor="#d1d1d1"
     inkscape:document-units="pt"
     inkscape:zoom="1.0278202"
     inkscape:cx="461.65662"
     inkscape:cy="1022.5524"
     inkscape:window-width="1440"
     inkscape:window-height="769"
     inkscape:window-x="0"
     inkscape:window-y="25"
     inkscape:window-maximized="1"
     inkscape:current-layer="svg11"
     showgrid="false" />
  <path
     d="M4950 9671 c-37 -6 -139 -49 -118 -51 3 0 1 -21 -6 -47 -7 -27 -12 -67 -12 -91 1 -23 -2 -42 -5 -42 -16 0 -15 -73 1 -94 9 -11 24 -40 33 -64 15 -38 16 -46 2 -72 -8 -16 -15 -36 -15 -45 0 -9 -9 -28 -19 -43 -45 -64 -91 -143 -91 -157 0 -8 10 -21 23 -29 19 -13 30 -13 92 1 39 8 101 15 138 14 75 -1 107 10 107 38 0 21 30 51 52 51 26 0 58 -66 58 -120 0 -41 -9 -63 -62 -152 -33 -56 -61 -108 -61 -115 0 -6 -6 -9 -12 -6 -7 2 -19 -2 -26 -9 -26 -25 -112 -78 -127 -78 -15 0 -62 -45 -62 -59 0 -4 7 -30 15 -57 8 -27 15 -80 15 -117 0 -64 -2 -71 -46 -135 -41 -60 -97 -128 -189 -227 -38 -42 -158 -123 -193 -131 -15 -4 -33 -11 -39 -17 -7 -5 -13 -7 -13 -3 0 4 -13 0 -30 -9 -16 -9 -30 -21 -30 -28 0 -6 20 -32 44 -57 42 -44 43 -47 32 -80 -9 -30 -16 -35 -45 -38 -21 -2 -49 4 -70 16 -39 22 -64 18 -93 -14 -22 -25 -58 -165 -73 -284 -3 -25 -8 -62 -11 -82 -8 -50 36 -115 83 -124 22 -4 45 -21 70 -51 78 -93 91 -103 131 -103 29 0 45 -7 64 -27 59 -65 98 -190 98 -317 l0 -90 -47 -43 c-27 -24 -56 -46 -66 -49 -9 -3 -14 -10 -11 -16 4 -6 3 -8 -3 -5 -31 19 -167 -60 -218 -128 l-27 -35 28 -34 c25 -30 35 -35 76 -35 39 -1 52 -6 79 -33 26 -27 29 -34 16 -36 -9 -2 -17 -10 -17 -17 0 -22 -62 -64 -152 -101 -158 -65 -168 -73 -168 -122 0 -45 56 -121 132 -180 47 -36 61 -42 104 -42 79 0 121 16 149 58 20 29 35 39 73 48 40 9 53 8 84 -8 20 -10 49 -33 63 -52 34 -45 90 -63 220 -72 123 -8 140 -19 185 -114 19 -38 38 -70 44 -70 5 0 7 -3 3 -6 -3 -4 1 -20 10 -37 25 -50 3 -125 -54 -185 -72 -76 -109 -125 -122 -161 -15 -47 -14 -54 14 -85 13 -15 29 -35 34 -45 6 -11 22 -18 39 -19 62 -2 154 -24 214 -52 113 -53 255 -79 278 -51 3 3 23 16 45 27 32 18 40 28 40 50 1 44 33 89 99 140 50 39 56 48 42 56 -22 12 -65 56 -60 61 2 2 -7 14 -21 27 -24 22 -25 29 -25 129 1 119 21 250 44 286 8 13 30 26 48 30 18 4 38 12 45 17 7 5 16 7 21 4 5 -3 30 8 56 24 34 22 59 30 93 30 74 0 146 27 172 65 20 30 21 37 11 75 -8 30 -15 40 -26 36 -8 -3 -12 -2 -9 3 3 5 1 12 -5 16 -20 13 -10 76 19 118 19 28 30 59 33 93 3 30 14 62 27 81 20 27 21 35 12 69 -18 66 -14 100 15 121 25 18 25 20 9 36 -9 9 -25 17 -35 17 -25 0 -37 59 -22 108 21 68 137 162 233 188 35 9 68 21 74 25 5 5 18 9 30 9 11 0 49 14 83 30 35 17 73 30 84 30 13 0 24 10 31 30 17 44 45 38 102 -20 48 -49 52 -51 93 -45 24 3 60 13 80 22 35 15 37 18 35 61 -1 39 3 50 29 74 l30 28 -35 0 c-19 0 -50 -6 -68 -13 -39 -15 -105 -13 -125 4 -8 6 -14 24 -14 39 0 15 -7 33 -14 40 -8 6 -29 35 -47 63 -18 29 -47 71 -65 93 -33 41 -33 42 -25 114 l8 74 -34 29 c-19 16 -59 45 -90 64 -31 19 -80 53 -107 77 -71 59 -103 79 -117 70 -8 -4 -9 -3 -5 4 4 7 3 12 -3 12 -18 0 -55 74 -61 121 -4 27 -3 46 1 44 7 -5 22 34 19 50 -1 6 1 7 5 3 10 -10 135 134 136 157 2 37 -3 50 -28 71 -16 12 -28 35 -32 59 -5 32 -2 43 17 62 l23 23 -19 33 c-18 28 -20 46 -16 142 2 60 5 111 5 112 1 2 2 9 3 16 1 8 20 12 58 12 31 0 54 -2 52 -4 -2 -3 15 -24 38 -48 39 -40 70 -54 81 -35 9 14 -5 62 -19 62 -25 0 -78 55 -71 74 9 23 48 36 71 24 32 -17 41 6 17 45 -14 23 -21 51 -21 86 0 29 -5 62 -12 74 -7 12 -14 40 -17 62 -7 50 -34 64 -139 76 -53 6 -81 14 -97 29 -12 11 -27 20 -33 20 -7 0 -12 4 -12 8 0 15 -65 79 -87 86 -12 4 -53 40 -91 81 -72 77 -119 101 -171 88 -69 -16 -156 -179 -128 -240 12 -26 70 -59 121 -69 23 -4 43 -16 55 -33 68 -99 68 -161 1 -307 -34 -74 -78 -120 -157 -164 -32 -18 -66 -40 -76 -48 -15 -14 -21 -13 -55 4 -20 11 -42 30 -48 43 -7 12 -25 37 -42 54 -16 18 -40 55 -52 84 -19 46 -24 51 -37 38 -51 -52 -94 -43 -118 24 -10 27 -31 64 -48 82 -59 68 -73 141 -34 181 20 21 55 30 67 18 8 -8 64 -44 70 -45 3 0 10 -4 17 -8 39 -25 102 40 124 127 12 48 12 47 -56 216 -27 67 -59 105 -78 93 -5 -3 -7 -2 -4 4 6 10 -32 33 -54 33 -11 0 -28 13 -75 57 l-34 31 0 105 c0 71 -4 108 -12 113 -14 9 -191 33 -233 32 -16 0 -50 -4 -75 -7z"
     id="path2"
     transform="matrix(0.1,0,0,-0.1,0,1024)"
     style="fill:none;stroke:#000000;stroke-opacity:1;stroke-width:9;stroke-dasharray:none" />
  <path
     d="m 421.68946,592.02344 c 0.0305,0.0206 0.0534,0.0585 0.084,0.0781 l -0.0781,-0.0644 c 0.006,0.006 -0.007,-0.0169 -0.006,-0.0137 z"
     style="color:#000000;fill:#000000;-inkscape-stroke:none"
     id="path14" />
  <path
     d="m 432.28752,556.741 c -3.40533,0.19146 -6.06342,2.60905 -7.93554,5.11524 -0.51417,0.65512 -1.09093,1.40679 -1.47656,2.25586 -0.38564,0.84907 -0.57596,1.82156 -0.26172,2.82226 l 0.004,0.0137 0.006,0.0137 c 0.97922,2.51245 3.13511,4.14983 3.86719,6.40625 l 0.004,0.008 0.002,0.01 c 0.97112,2.60202 0.12414,5.50261 -1.15039,7.97461 l -0.002,0.004 -0.002,0.004 c -1.1653,2.38113 -2.74661,4.67666 -3.53515,7.37109 l -0.008,0.0234 -0.004,0.0234 c -0.1054,0.59044 0.0686,1.14048 0.35742,1.57032 0.0563,0.0837 0.14735,0.12082 0.21094,0.19726 -1.45311,-0.24148 -2.8366,0.27438 -4.01953,0.54883 l -0.0137,0.004 -0.0137,0.004 c -5.04803,1.52493 -9.6111,3.91501 -14.42578,5.54493 l -0.008,0.002 -0.006,0.002 c -2.89532,1.08169 -5.88311,1.91992 -8.88672,2.7168 l -0.0137,0.004 -0.0117,0.004 c -2.90388,0.94728 -5.89983,2.21131 -8.10156,4.53516 l -0.0156,0.0176 -0.0137,0.0176 c -0.31712,0.41044 -0.41951,0.8567 -0.5293,1.21094 -0.10979,0.35424 -0.21014,0.60343 -0.42773,0.78516 l -0.0371,0.0312 -0.0312,0.0391 c -2.56711,3.30834 -5.63217,6.22081 -8.67383,9.1543 v 0.002 c -0.92726,0.89714 -1.99894,1.62703 -3.14062,2.26562 l -0.0274,0.0156 -0.0254,0.0176 c -4.67537,3.54817 -8.7118,7.90685 -13.91992,10.40429 h -0.004 l -0.002,0.002 c -4.95892,2.45382 -10.70135,2.43602 -16.23047,2.27344 h -0.002 -0.002 c -3.70865,-0.0801 -7.34043,-0.27073 -11.01758,-0.63477 h -0.01 -0.01 c -2.95401,-0.16097 -6.13697,-1.0608 -9.27539,-0.0801 l -0.0117,0.004 -0.01,0.004 c -1.96721,0.7252 -3.57844,2.01985 -5.24609,3.02149 l -0.002,0.004 -0.004,0.002 c -2.11844,1.32425 -4.22702,2.69868 -6.56055,3.33008 l 0.11524,-0.0156 c -1.31035,0.01 -2.26784,1.08726 -2.44336,2.28516 -0.61339,2.18027 -0.8285,4.45859 -0.79297,6.69531 v 0.002 c 0.0143,0.72018 0.28188,1.33751 0.52343,1.93555 -0.0408,0.01 -0.0171,0.003 -0.0703,0.0117 -0.21545,0.0335 -0.5287,0.0909 -0.79883,0.33203 -0.62651,0.44501 -0.96972,1.09194 -1.15234,1.74414 -0.18617,0.66487 -0.23731,1.34857 -0.30859,1.92578 l -0.002,0.008 v 0.006 c -0.15482,1.66515 0.61676,3.21374 1.74414,4.32032 1.06436,1.28642 2.36708,2.3553 3.82227,3.16211 l 0.13281,0.0742 0.15235,-0.0215 c 0.31064,-0.0468 0.4999,-0.192 0.63671,-0.25977 0.0456,-0.0226 0.0241,-0.0111 0.0449,-0.0195 0.36886,1.52157 1.56202,2.56451 2.39648,3.52344 l 0.008,0.008 0.008,0.01 c 2.25451,2.32986 5.00127,4.19594 6.21484,7.05078 0.69368,2.29224 -0.27074,4.73351 -1.10742,7.07031 -0.47574,1.2848 -1.14772,2.67025 -1.16016,4.21485 v 0.0273 l 0.004,0.0273 c 0.21588,1.92012 1.64797,3.19655 2.46875,4.51368 l 0.01,0.0117 0.008,0.0117 c 0.96826,1.34504 2.61327,2.17949 4.21484,2.13477 3.23818,0.22645 6.44784,0.009 9.54492,0.5664 l 0.0117,0.002 h 0.0117 c 2.0134,0.25968 3.97389,0.86292 5.90039,1.58008 l 0.0176,0.006 0.0195,0.006 c 0.91184,0.25059 2.00721,0.62956 3.11914,0.35352 l 0.11914,-0.0293 0.0664,-0.0644 c 0.0465,1.56122 0.98643,2.77112 1.53906,3.91016 l 0.008,0.0156 0.01,0.0156 c 0.58585,1.00003 1.25026,2.03767 2.14258,2.86523 l 0.0742,0.0703 0.0957,0.0293 c 0.16816,0.0528 0.31143,0.12101 0.36133,0.16406 0.0499,0.0431 0.0467,5.1e-4 0.0293,0.10742 l -0.0117,0.0781 0.0137,0.0762 c 0.25336,1.36953 0.31344,2.79273 0.34765,4.08399 v 0.006 0.006 c 0.18037,3.63581 -0.21146,7.40235 0.63477,11.12305 l 0.0488,0.21485 0.19921,0.0937 c 1.3086,0.61383 2.67019,0.57039 3.8711,0.77929 1.44948,0.51085 2.66007,1.65896 3.98633,2.6836 1.81699,1.47024 3.64884,3.23273 3.74414,5.53711 v 0.0137 l 0.002,0.0137 c 0.18207,1.75337 -0.20137,3.78108 0.61133,5.68555 l 0.004,0.01 0.006,0.0117 c 1.04085,2.12318 3.09544,3.30044 4.68946,4.61719 l 0.01,0.008 0.01,0.008 c 2.31786,1.71559 4.62144,3.70979 7.49023,4.74805 l 0.0137,0.006 0.0137,0.004 c 2.49454,0.73395 5.08387,0.3338 7.47656,-0.0547 l 0.01,-0.002 0.01,-0.002 c 3.09027,-0.64196 5.69153,-2.40651 8.20703,-4.00781 3.11324,-1.80582 6.79524,-3.14982 10.28711,-2.21289 1.61756,0.44749 2.91642,1.64422 4.14453,2.90039 0.97762,1.02608 2.7349,0.93378 3.5586,-0.24805 1.68719,-1.69172 2.14301,-3.99785 3.4375,-5.57422 l 0.008,-0.01 0.01,-0.0117 c 2.62545,-3.64958 5.73927,-6.94395 8.93164,-10.14453 1.47224,-1.3704 2.89498,-2.79432 4.58789,-3.70508 2.64825,-1.07684 5.67608,-0.24907 8.33204,0.85742 2.18882,0.91539 4.29377,2.06629 6.48632,3.09375 l 0.17383,0.082 0.17774,-0.0684 c 3.49845,-1.33197 7.17934,-2.33626 10.63086,-4.00781 l 0.008,-0.004 0.006,-0.004 c 3.9113,-2.07961 6.76843,-5.76571 8.375,-9.79883 l 0.008,-0.0234 0.008,-0.0254 c 0.3461,-1.27242 0.3042,-2.48684 0.8711,-3.42187 l 0.01,-0.0176 0.01,-0.0195 c 0.68434,-1.42136 1.65758,-2.77973 2.97656,-3.51563 l -0.26562,0.0547 c 0.74073,0.0761 1.37503,-0.17302 1.93359,-0.4082 0.55856,-0.23519 1.05376,-0.45602 1.54687,-0.48242 l 0.0215,-0.002 0.0215,-0.002 c 2.90421,-0.43928 5.73589,-0.48302 8.68946,-0.4082 2.28629,0.15742 4.61636,0.20259 6.48828,1.33007 l 0.01,0.008 0.0117,0.006 c 2.94428,1.55402 6.03677,2.77813 9.10547,3.97851 l 0.002,0.002 h 0.002 c 2.37525,0.89237 4.97987,2.04384 7.7539,1.62891 l 0.082,-0.0117 0.0703,-0.0391 c 0.0158,-0.009 0.37873,-0.0525 0.74609,-0.12109 0.18368,-0.0343 0.39754,-0.0814 0.5918,-0.27539 0.19426,-0.19397 0.2563,-0.53214 0.1875,-0.80665 l 0.0117,0.14258 c 0.0951,-1.27189 -0.19264,-2.42954 0.0117,-3.4414 0.0265,10e-4 0.0345,-0.001 0.10547,0.0137 0.11298,0.0235 0.26348,0.0676 0.44532,0.0898 0.18183,0.0223 0.41915,0.0228 0.64843,-0.10742 l -0.15625,0.0527 c 3.49217,-0.51203 6.59727,-2.05701 9.7793,-2.98632 l 0.008,-0.004 c 3.70107,-1.00824 7.24266,-2.54951 10.51367,-4.54687 l 0.006,-0.004 c 1.34522,-0.79742 3.01566,-1.7057 3.57813,-3.51563 0.68443,-2.06044 0.52018,-4.17801 1.02539,-6.05664 l 0.004,-0.0137 0.002,-0.0117 c 0.47721,-2.30396 1.52249,-4.46832 3.00781,-6.29492 l 0.004,-0.006 0.004,-0.006 c 0.52091,-0.68549 0.96069,-1.53221 1.13868,-2.43554 0.17641,-0.89537 0.0759,-1.86509 -0.49805,-2.69532 -0.98286,-1.76765 -2.77304,-3.041 -4.80859,-3.27148 -2.5021,-0.44567 -4.98969,-0.34032 -7.37696,-0.44531 h -0.004 -0.004 c -4.73513,-0.13078 -9.47351,0.0853 -14.06641,-0.74414 l -0.004,-0.002 c -1.56902,-0.32578 -3.12651,-1.25271 -3.49219,-2.80078 l -0.002,-0.0117 -0.004,-0.01 c -0.66594,-2.33245 -0.45496,-4.85853 -0.44727,-7.38672 1e-5,-0.003 0,-0.005 0,-0.008 0.14252,-2.76574 0.85775,-5.64423 1.6875,-8.21094 v -0.002 c 1.64512,-5.11821 3.98162,-10.0219 5.47852,-15.29492 v -0.002 c 0.66459,-2.38653 1.05427,-4.8611 1.00195,-7.35938 v 0.0195 c 0.0496,-2.6096 0.77943,-5.29165 2.63477,-7.10938 l 0.006,-0.006 0.006,-0.006 c 1.36043,-1.43231 3.19534,-2.37205 4.96289,-3.45117 l 0.0156,-0.01 0.0156,-0.01 c 0.54875,-0.40035 1.11249,-0.91025 1.52734,-1.53125 0.41485,-0.621 0.67982,-1.37432 0.56055,-2.18945 l -0.006,-0.041 -0.0137,-0.0391 c -1.06514,-3.13795 -2.87176,-5.95334 -4.89258,-8.50391 -0.52184,-0.70775 -1.22823,-1.05325 -1.72266,-1.46484 -0.19581,-0.28677 -0.28284,-0.64743 -0.37109,-1.08789 -0.0903,-0.45064 -0.18716,-0.97881 -0.5332,-1.46289 -1.5757,-3.0785 -3.66013,-5.87225 -5.97461,-8.40235 -10e-4,-10e-4 -0.003,-7.2e-4 -0.004,-0.002 -0.64506,-0.77358 -1.55037,-0.94276 -2.18164,-1.22656 -0.11363,-0.0729 -0.20363,-0.23854 -0.30273,-0.51953 -0.10054,-0.28507 -0.1837,-0.67681 -0.55274,-0.96485 l -0.10547,-0.082 -0.13476,-0.0117 c -3.57827,-0.2827 -7.03334,0.53883 -10.44532,0.56836 h -0.01 -0.008 c -6.01342,0.26481 -12.18779,0.32005 -18.22461,-0.23633 h -0.004 -0.002 c -1.06979,-0.0806 -2.10135,-0.30317 -2.90235,-0.90429 l -0.0273,-0.0215 -0.0312,-0.0156 c -5.34483,-2.84625 -11.21632,-4.41394 -16.24609,-7.53125 l -0.002,-0.002 c -10e-4,-7.6e-4 -0.003,-10e-4 -0.004,-0.002 -2.2302,-1.43576 -4.03803,-3.57027 -4.74805,-6.11719 v -0.002 -0.002 c -0.73878,-2.55842 -0.93083,-5.71331 -3.16016,-7.86914 -1.93831,-1.89062 -4.28044,-3.26524 -6.60156,-4.50782 l -0.004,-0.002 -0.004,-0.002 c -2.01036,-1.0232 -4.26407,-1.78024 -6.61328,-1.64063 z"
     style="color:#000000;fill:none;stroke:#000000;stroke-opacity:1;-inkscape-stroke:none"
     id="path12" />
  <path
     d="m 300,641 c -2.2,1.2 -5.6,1.9 -9.3,2 -5.9,0 -12.2,2.3 -11.2,4 0.4,0.6 0.2,1 -0.3,1 -0.6,0 -1.3,2.4 -1.7,5.2 -1.4,10.4 -5.3,14.8 -13,14.8 -3.8,0 -8.8,4.2 -12,10.3 -1.1,2 -3.6,5.6 -5.7,8 -3.5,4.2 -4,4.4 -10.4,5 -4.9,0.5 -7.2,1.2 -8.6,2.7 -1,1.1 -2.2,2 -2.7,2 -1,0 -5.1,8.3 -5.1,10.3 0,2.1 -1.5,2.9 -6,3.1 -5.3,0.3 -7.3,2.1 -6.4,6 0.9,4.4 1.5,5 9.6,8.1 7.9,3 14.4,7 19.6,11.8 3,2.9 3.2,3.5 3.2,10.3 0,7.6 -0.6,8.8 -5.2,9.9 -2.2,0.6 -2.8,1.4 -3.3,4.8 -0.9,5.2 -4.9,13.6 -7.7,15.9 -2.3,2 -14.2,2.6 -15.3,0.8 -0.8,-1.3 -8,-5 -9.8,-5 -0.7,0 -2.2,0.8 -3.3,1.8 -3.9,3.7 -7,5.1 -12.9,5.7 -7.2,0.9 -11,2.4 -15,5.9 -1.6,1.5 -4.2,3.4 -5.7,4.1 -5.1,2.8 -17.3,1.9 -23.5,-1.7 -1.8,-1.1 -3.6,-1.8 -3.9,-1.5 -0.3,0.3 0.3,2.5 1.3,4.9 1.6,3.4 1.8,5 1,7.3 -0.6,1.7 -1.4,3.3 -1.9,3.6 -0.5,0.3 1.1,2.7 3.6,5.3 2.5,2.6 4.6,5.2 4.6,5.8 0,0.6 0.3,0.8 0.7,0.5 0.3,-0.4 1.2,0.1 1.8,1 1.9,2.5 10.3,2 12.2,-0.7 2.2,-3.1 6.3,-2.5 10.7,1.5 4.5,4.1 5.3,4.2 10.7,1.5 3.2,-1.7 4.3,-1.8 6.2,-0.9 1.2,0.7 2.4,1.5 2.7,1.8 0.6,0.8 5.2,2.8 6.4,2.9 0.5,0 1.2,0.4 1.5,0.9 1.7,2.4 7.4,6.2 8.3,5.7 0.6,-0.4 0.8,-0.2 0.5,0.3 -0.4,0.6 0.5,1.5 2.1,2 3.5,1.2 5.1,1 8.5,-0.7 2.5,-1.2 3.2,-1.2 5.5,0.2 2.1,1.3 2.8,2.5 3,5.9 0.4,4.8 2.5,7.2 5.9,6.4 1.2,-0.3 3.8,0.4 5.8,1.6 3.8,2.3 9.6,2.8 16.7,1.4 3.3,-0.6 3.8,-1.2 4.4,-4.1 0.3,-1.9 0.3,-5.4 -0.1,-7.9 -1.2,-8.5 1.3,-10.5 8.6,-6.6 2.8,1.5 3.8,1.7 5.2,0.6 0.9,-0.7 1.7,-1.7 1.7,-2.2 0,-0.6 1.1,-2.2 2.5,-3.7 2.8,-3 7.6,-3.3 10.8,-0.6 1,0.8 2,1.5 2.4,1.5 0.3,0 2.2,1.4 4.1,3.2 1.9,1.8 3.9,3 4.4,2.7 0.4,-0.3 0.8,0 0.8,0.5 0,0.6 0.8,1.1 1.8,1.1 1.7,0 3.8,-1.7 13.9,-11.1 2.2,-2 4.9,-4.2 6.1,-4.8 3,-1.6 1.8,-3.3 -1.9,-2.7 -1.6,0.2 -2.7,0 -2.4,-0.4 0.3,-0.5 0.1,-1.1 -0.5,-1.5 -0.5,-0.3 -5.6,-6.8 -11.3,-14.4 -11.3,-15 -11.4,-15.5 -5.9,-20.9 3.4,-3.4 7.4,-13 7.7,-18.7 0.3,-4.9 0.2,-5.1 -4.6,-9.6 -4.5,-4.1 -4.9,-4.9 -4.9,-9 0,-3.6 0.4,-4.6 2.3,-5.5 1.4,-0.6 3.5,-0.7 5.2,-0.2 4.4,1.2 8.5,0 13.2,-3.8 5.6,-4.6 11.9,-7.4 16.7,-7.4 2.2,0 5.9,-1.1 8.7,-2.7 l 4.9,-2.6 v -7.1 c 0,-5.1 -0.5,-7.9 -1.7,-9.6 -4.1,-5.9 -6.5,-7 -15.7,-7 h -7.4 l -3.1,-3.9 c -2.1,-2.7 -3,-4.7 -2.8,-7 0.1,-1.7 0.5,-3.1 0.9,-3.1 0.3,0 1.1,-1.3 1.6,-2.9 0.8,-2.3 0.7,-3.2 -0.6,-4.5 -0.9,-0.8 -4.5,-4.1 -7.9,-7.2 -6.8,-6.1 -7.6,-8.4 -5.3,-15.1 0.6,-1.6 0.7,-3.9 0.3,-5 -0.8,-2.1 -0.8,-2.1 -4.3,-0.3 z"
     style="fill:none;stroke:#000000;stroke-width:0.9;stroke-dasharray:none;stroke-opacity:1"
     id="path5" />
  <path
     d="m 594.84961,744.80411 0.0685,-0.0563 c 0.009,-0.009 0.005,-0.0147 0.0115,-0.0242 -0.0251,0.0286 -0.0483,0.0593 -0.0801,0.0805 z"
     style="color:#000000;fill:#000000;stroke-width:0.1;-inkscape-stroke:none"
     id="path19" />
  <path
     style="color:#000000;fill:#000000;stroke-width:0.1;-inkscape-stroke:none"
     d="m 441.7293,809.34923 c 0.027,-0.002 0.0272,-0.014 0.004,-0.005 -10e-4,0 -0.006,0.004 -0.007,0.004 0.001,-3e-5 0.003,0.001 0.003,0.001 z"
     id="path18" />
  <path
     style="color:#000000;fill:#000000;stroke-width:0.1;-inkscape-stroke:none"
     d="m 589.5503,872.8297 c 0,-0.0542 0.0238,-0.0972 0.0316,-0.14766 -0.0179,0.0415 -0.0316,0.0921 -0.0316,0.14766 z"
     id="path17" />
  <path
     style="color:#000000;fill:none;stroke-width:1;stroke:#000000;stroke-opacity:1;stroke-dasharray:none"
     d="m 571.39766,874.1547 c -4.76758,-0.025 -9.6469,-0.13122 -13.56543,-0.31289 -1.95927,-0.0908 -3.67775,-0.20043 -5.02676,-0.32891 -1.34902,-0.12847 -2.29652,-0.25706 -2.8584,-0.45996 l -0.0123,-0.005 -0.0121,-0.005 c -0.60611,-0.25976 -2.09288,-0.62368 -3.90743,-0.97168 -1.8142,-0.34793 -3.98354,-0.6971 -6.07773,-0.99629 0,-5e-5 -10e-4,0 -10e-4,0 -4.09093,-0.4989 -8.953,-1.09318 -10.79395,-1.39922 0,-4e-5 -10e-4,0 -10e-4,0 -0.89821,-0.11613 -2.05586,-0.61226 -3.36602,-1.30625 -1.3106,-0.69422 -2.75121,-1.59294 -4.0959,-2.53359 -1.34469,-0.94065 -2.59147,-1.92109 -3.51699,-2.78887 -0.46276,-0.43389 -0.84524,-0.83824 -1.125,-1.20976 -0.27976,-0.37152 -0.4875,-0.69439 -0.4875,-1.10762 0,0.16 10e-4,0.0213 -0.17969,-0.13535 -0.18021,-0.15671 -0.47433,-0.35961 -0.84629,-0.57559 -0.7439,-0.43194 -1.80191,-0.92523 -2.98203,-1.36777 l -0.002,-10e-4 -0.003,-10e-4 c -3.56174,-1.38513 -4.75398,-1.37633 -8.92773,-0.38282 -2.91492,0.72873 -9.97784,1.31308 -16.10156,1.41348 v 0 c -11.87548,0.1996 -14.67115,1.03508 -21.83906,6.21133 l -0.004,0.003 c 0,0 -10e-4,0 -10e-4,10e-4 -1.75558,1.304 -2.83274,2.03003 -3.75235,2.29278 -0.46027,0.1315 -0.90118,0.13016 -1.29258,-0.0133 -0.39139,-0.14345 -0.71462,-0.40408 -1.03671,-0.72618 -3.2038,-3.15382 -5.31131,-5.38464 -6.64551,-7.04921 -1.33459,-1.66506 -1.92484,-2.76956 -1.98555,-3.74083 v -0.003 -0.003 c -0.0321,-0.67381 0.24451,-1.36796 0.66816,-2.06347 0.42365,-0.69552 1.00907,-1.39211 1.67109,-2.02168 1.32405,-1.25914 2.91234,-2.28633 4.31016,-2.28633 0.95625,0 2.24403,-0.86511 3.24355,-2.16211 0.99953,-1.297 1.70645,-2.98305 1.70645,-4.38789 0,-1.98571 -0.67091,-3.07422 -2.5041,-4.32852 l 0.0156,0.0102 c -0.80714,-0.50447 -1.56267,-1.00805 -2.15761,-1.42578 -0.59495,-0.41773 -1.00136,-0.71699 -1.22207,-0.9377 -0.0793,-0.0793 -0.63673,-0.54072 -1.3711,-1.11328 -0.73334,-0.57176 -1.68041,-1.29455 -2.67695,-2.04199 -0.001,-10e-4 -0.002,-0.002 -0.004,-0.003 -8e-5,-6e-5 0,0 0,0 -4.64515,-3.40874 -8.08008,-10.17605 -8.08008,-15.85996 0,-2.63333 -0.57274,-4.3698 -1.84277,-5.4584 l -0.005,-0.004 -0.005,-0.004 c -0.58616,-0.53287 -1.04432,-1.11744 -1.31622,-1.68985 -0.19534,-0.41125 -0.30413,-0.8453 -0.22988,-1.24375 -0.2524,0.0659 -0.51939,0.0465 -0.79668,-0.005 -0.37909,-0.0711 -0.79373,-0.21808 -1.24121,-0.42208 -0.89496,-0.40799 -1.91707,-1.04892 -2.89219,-1.81875 l -0.001,-10e-4 -10e-4,-10e-4 c -2.055,-1.644 -3.24267,-3.34589 -3.41602,-4.8627 -0.0867,-0.7584 0.11264,-1.48589 0.61055,-2.02402 0.49791,-0.53813 1.25465,-0.87564 2.22461,-1.01035 h 0.001 10e-4 c 0.63767,-0.085 1.17957,-0.39035 1.70039,-0.96778 0.52075,-0.57735 1.00208,-1.43116 1.43984,-2.5498 6e-5,0 0,0 0,0 0.27352,-0.79513 0.50063,-1.42043 0.77637,-1.93106 0.27802,-0.51485 0.62333,-0.92193 1.09179,-1.19394 0.93692,-0.54402 2.19432,-0.56094 4.45098,-0.56094 1.27115,0 2.52385,-0.12373 3.47324,-0.31602 0.4747,-0.0961 0.87447,-0.21079 1.15,-0.3248 0.27554,-0.11402 0.39984,-0.2616 0.37422,-0.21035 l 0.0213,-0.0428 0.0299,-0.0371 c -0.0237,0.0296 0.0267,-0.0479 0.0652,-0.17598 0.0385,-0.12811 0.0801,-0.31086 0.11953,-0.53379 0.0788,-0.44587 0.14998,-1.05373 0.20547,-1.76895 0.11098,-1.43042 0.16094,-3.29378 0.11133,-5.22871 v -0.006 -0.007 c 0,-1.91579 0.0999,-3.65393 0.26621,-4.93301 0.0831,-0.63954 0.18072,-1.16147 0.30215,-1.55566 0.0607,-0.1971 0.12376,-0.3619 0.21992,-0.5127 0.0962,-0.1508 0.26672,-0.34863 0.56172,-0.34863 0.375,0 0.72673,0.0916 1.00293,0.30859 0.2762,0.21702 0.44707,0.57141 0.44707,0.94141 0,-0.2 -0.0355,-0.10063 0.10918,0.0119 0.1447,0.11255 0.39178,0.26372 0.70762,0.42461 0.63051,0.32121 1.53892,0.69053 2.57031,1.03457 2.95055,0.88441 4.01684,0.80179 7.68437,-0.78418 l 0.003,-10e-4 0.003,-10e-4 c 1.17788,-0.49078 2.20982,-1.03255 2.9168,-1.48789 0.35349,-0.22767 0.62683,-0.43653 0.78379,-0.58711 0.069,-0.0662 0.10369,-0.11238 0.12187,-0.13848 -0.0188,-0.16464 -0.009,-0.31938 0.0188,-0.49375 0.0357,-0.22304 0.0963,-0.47218 0.175,-0.74121 0.15748,-0.53805 0.38834,-1.15262 0.64727,-1.72226 l 0.007,-0.015 0.008,-0.0143 c 0.54876,-1.00606 1.36315,-3.42615 1.65196,-5.0627 l 10e-4,-0.004 0.001,-0.003 c 0.24442,-1.271 0.28009,-2.13727 0.049,-2.89649 -0.23107,-0.75921 -0.74314,-1.46722 -1.71699,-2.39238 l -0.004,-0.004 -0.004,-0.004 c -1.76863,-1.76863 -2.63184,-3.81381 -2.63184,-6.21816 0,-2.00909 -1.3439,-5.27908 -4.42324,-9.84844 l -0.002,-0.004 -0.002,-0.004 c -2.01374,-3.1213 -3.52437,-6.03313 -4.2455,-8.042 -0.36057,-1.00443 -0.56211,-1.7461 -0.42871,-2.36543 0.0333,-0.15483 0.0955,-0.31161 0.21425,-0.44531 0.1188,-0.1337 0.29707,-0.22707 0.4711,-0.25391 0.34805,-0.0537 0.65112,0.0742 0.99375,0.27403 l 0.0117,0.007 0.0111,0.007 c 0.18479,0.12319 0.17854,0.11238 0.31133,0.0107 0.13279,-0.10164 0.34326,-0.40616 0.51523,-0.8877 0.34396,-0.96307 0.57383,-2.58238 0.57383,-4.54863 0,-1.98571 -0.74716,-3.75521 -2.15703,-5.07109 l -0.001,-10e-4 -10e-4,-10e-4 c -1.83409,-1.72928 -2.74347,-3.9472 -2.69101,-6.39941 0.0524,-2.4508 1.04196,-5.12735 2.92539,-7.87754 0.78719,-1.1808 1.52901,-2.49181 2.06836,-3.61953 0.53934,-1.12772 0.85605,-2.14086 0.85605,-2.43086 0,-0.71364 0.34486,-1.50353 0.87559,-2.29961 0.52887,-0.79331 1.25838,-1.57656 2.11093,-2.16465 3.81888,-2.85853 10.73835,-2.79935 16.65918,0.059 l -0.0145,-0.007 c 2.4951,1.09784 5.01598,2.20537 5.4752,2.38945 0.22802,0.0478 0.49093,0.13835 0.88105,0.28125 0.43365,0.15885 0.98282,0.37223 1.61562,0.62285 1.26562,0.50124 2.86461,1.15075 4.51172,1.79961 l 0.006,0.002 0.006,0.003 c 4.92988,2.1128 6.86647,3.62114 9.9877,7.95058 l 0.002,0.003 0.002,0.002 c 2.43458,3.47797 4.4223,5.64794 6.60098,6.95996 2.17867,1.31202 4.57777,1.79865 7.93691,1.84805 h 10e-4 10e-4 c 2.5939,0.0499 3.97394,0.0164 5.1834,-0.47891 1.20947,-0.4953 2.34892,-1.49821 4.39375,-3.49316 l 10e-4,-10e-4 10e-4,-10e-4 c 2.71169,-2.61125 4.59642,-4.15498 6.54785,-4.91973 1.95128,-0.76469 3.91514,-0.70424 6.64571,-0.19863 h 10e-4 c 1.88723,0.34762 2.94849,0.44814 3.74512,0.22207 0.79672,-0.2261 1.45307,-0.79673 2.54121,-1.98379 v -10e-4 l 3.18125,-3.44629 v 3.75226 c 0,0.87143 -0.41909,2.33066 -1.06211,4.19668 -0.64302,1.86602 -1.52205,4.07588 -2.47793,6.18887 l -0.001,0.002 -10e-4,0.002 c -2.03992,4.37837 -3.1167,7.61704 -3.30918,10.10723 -0.19248,2.49018 0.45104,4.22109 1.9293,5.79472 l 10e-4,10e-4 10e-4,0.001 c 1.26658,1.36401 2.19671,1.98457 3.90761,2.03145 1.71091,0.0469 4.23993,-0.55825 8.42969,-1.85508 v 0 c 5.57545,-1.72333 12.36988,-2.22282 18.64648,-1.68086 6.2766,0.54195 12.0301,2.10972 15.54942,4.6457 v 0 0 c 0.91603,0.66157 1.70381,1.32081 2.24218,1.85918 0.26919,0.26918 0.47524,0.50235 0.6168,0.72597 0.0708,0.11181 0.13142,0.21741 0.15996,0.3752 0.0187,0.10317 -0.009,0.26139 -0.0809,0.39629 0.002,0.0108 0,0.004 0.009,0.0291 0.0379,0.10162 0.14481,0.29016 0.30957,0.50605 0.32953,0.43179 0.88329,0.98932 1.55762,1.51914 l -0.004,-0.003 c 2.13298,1.64075 4.30343,5.74959 5.62168,9.24805 0.65913,1.74922 1.09318,3.32072 1.13477,4.42285 0.0208,0.55106 -0.014,1.04019 -0.40684,1.37344 -0.1964,0.16662 -0.47913,0.22934 -0.72832,0.19394 -0.24918,-0.0354 -0.48306,-0.14212 -0.73515,-0.30059 l 0.008,0.005 c -0.15542,-0.0933 -0.26144,-0.0791 -0.28886,-0.0682 -0.0274,0.011 -0.0297,-0.0178 -0.0297,0.0822 0,0.4267 -0.25072,0.81238 -0.59199,1.04492 -0.34127,0.23254 -0.76942,0.36558 -1.27637,0.45176 -1.0139,0.17236 -2.36015,0.14074 -3.91152,-0.05 -3.10276,-0.38149 -7.00575,-1.41415 -10.35625,-2.93711 l -0.002,-0.001 -0.002,-10e-4 c -3.64511,-1.69773 -5.66678,-2.55045 -7.38398,-2.78731 -1.71648,-0.23675 -3.20608,0.11335 -5.89493,0.90996 -1.57265,0.49168 -2.50033,0.92776 -3.29375,1.75567 -0.79399,0.82852 -1.48004,2.10548 -2.42421,4.29199 v 0.001 10e-4 c -3.4731,7.93854 -3.56878,12.81628 -0.39531,20.65078 l 10e-4,0.001 10e-4,10e-4 c 3.07433,7.73541 7.0132,12.39956 11.51875,13.8375 v 0 0 c 1.4203,0.45653 2.37889,0.88122 3.00996,1.81348 0.63102,0.9322 0.89637,2.2401 1.19824,4.45371 v 0 c 0.68276,4.97361 3.26404,8.38701 7.19004,9.63183 l 0.007,0.002 0.007,0.002 c 0.92095,0.32503 1.6229,0.91865 2.01504,2.10859 0.392,1.18951 0.58353,2.97686 0.78399,5.98301 7e-5,0.001 0,0.002 0,0.003 0.24895,2.88544 0.50025,4.73211 0.9418,6.10449 0.44204,1.3739 1.06089,2.29197 2.13438,3.41426 l 0.002,0.002 0.002,0.002 c 0.72163,0.77318 1.31563,1.56907 1.69238,2.26875 0.18837,0.34984 0.3244,0.67392 0.38828,0.98535 0.015,0.073 0.008,0.14922 0.0137,0.22441 0.72696,-0.21495 1.58238,-0.0243 2.05117,0.67891 l 0.005,0.007 0.005,0.008 c 0.0809,0.13231 0.36238,0.43943 0.77618,0.79629 0.41379,0.35686 0.96303,0.78265 1.60859,1.25039 1.29113,0.93549 2.96841,2.04062 4.75488,3.14238 3.57294,2.20352 7.60912,4.40179 9.83242,5.22344 l 10e-4,10e-4 0.002,0.001 c 2.27383,0.859 3.6383,1.53361 4.20977,2.56543 0.28574,0.51591 0.30516,1.11806 0.10723,1.69902 -0.19793,0.58097 -0.58465,1.16905 -1.12598,1.83926 v 0 0 c -0.96842,1.19629 -3.28689,2.67524 -5.52793,3.85274 -1.12051,0.58874 -2.2116,1.0866 -3.09785,1.39394 -0.44312,0.15367 -0.83279,0.26086 -1.17285,0.30449 -0.27913,0.0358 -0.55467,0.0534 -0.80664,-0.0992 -0.0151,0.37693 -0.24803,0.60789 -0.50918,0.82402 -0.26988,0.22335 -0.62226,0.43443 -1.04902,0.64453 -0.85352,0.4202 -2.00257,0.82691 -3.28125,1.13379 l 0.004,-10e-4 c -1.77622,0.44406 -2.88581,0.87829 -3.71094,1.5086 -0.82513,0.63031 -1.40816,1.48097 -2.0957,2.85605 l 0.008,-0.0166 c -0.95451,2.12115 -3.03651,4.42604 -4.69863,5.3125 l -0.005,0.003 -0.005,0.003 c -0.76981,0.38491 -1.47002,0.84545 -1.9584,1.26406 -0.24418,0.20931 -0.43498,0.40928 -0.55195,0.56856 -0.11696,0.15927 -0.14082,0.27734 -0.14082,0.26484 0,0.1512 -0.0723,0.28295 -0.14043,0.35937 -0.0681,0.0764 -0.13406,0.11799 -0.19746,0.15274 -0.12681,0.0695 -0.25411,0.10969 -0.40703,0.14961 -0.30585,0.0798 -0.70919,0.14387 -1.21973,0.20332 -1.02108,0.11891 -2.45912,0.21245 -4.19473,0.28457 -3.47121,0.14424 -8.12539,0.20042 -12.89296,0.17539 z"
     id="path15" />
  <path
     d="M3467 3065 c-8 -7 -26 -17 -41 -21 -14 -3 -29 -10 -32 -15 -3 -5 -25 -9 -50 -9 -52 0 -110 -26 -174 -80 -52 -43 -41 -40 -125 -40 -59 0 -65 -2 -65 -20 0 -21 67 -87 83 -82 4 1 6 -2 3 -7 -4 -5 -2 -12 4 -16 16 -10 12 -122 -6 -163 -10 -20 -19 -45 -21 -55 -2 -11 -20 -39 -40 -63 -41 -51 -40 -56 26 -137 20 -24 57 -74 83 -111 30 -41 55 -66 67 -66 10 0 29 -8 42 -19 13 -10 68 -28 122 -41 104 -25 113 -31 128 -97 4 -18 3 -33 -2 -33 -5 0 -9 -13 -9 -29 0 -21 13 -41 50 -77 41 -41 50 -55 50 -86 0 -27 -6 -42 -25 -56 -29 -23 -33 -51 -7 -53 9 -1 22 -2 27 -4 6 -1 23 -3 38 -3 15 -1 38 -13 50 -26 13 -14 35 -28 50 -31 15 -4 63 -43 107 -86 45 -43 87 -79 95 -79 8 0 17 -4 20 -10 7 -12 17 -67 17 -98 0 -23 2 -24 46 -17 25 4 77 8 115 10 38 2 77 10 86 18 23 19 68 37 94 37 12 0 51 20 87 45 44 30 79 46 109 49 24 3 54 12 67 21 20 13 22 19 13 43 -6 15 -24 41 -40 58 -26 26 -30 38 -28 77 3 45 4 47 49 66 57 25 80 48 60 61 -8 5 -18 6 -22 4 -5 -3 -7 -2 -6 3 2 4 -1 10 -7 13 -22 11 -110 113 -122 142 -7 16 -13 46 -13 65 0 54 -88 129 -146 124 -31 -2 -34 1 -59 53 -15 31 -31 56 -36 56 -5 0 -9 8 -9 18 0 10 -4 22 -9 28 -6 5 -12 25 -14 45 -6 52 -14 61 -50 53 -18 -3 -39 -11 -47 -18 -13 -9 -13 -8 -3 4 10 13 8 18 -7 27 -28 18 -33 62 -19 170 15 122 15 269 -2 289 -19 23 -97 15 -82 -9 4 -6 1 -7 -7 -2 -8 5 -17 2 -24 -7 -16 -22 -84 -42 -136 -39 -48 2 -100 32 -160 93 -25 25 -30 36 -25 59 13 57 -78 114 -118 74z"
     id="path7"
     transform="matrix(0.1,0,0,-0.1,0,1024)"
     style="fill:none;stroke:#000000;stroke-opacity:1;stroke-width:9;stroke-dasharray:none" />
  <path
     d="M4242 3055 c-19 -13 -41 -34 -50 -47 -9 -12 -27 -34 -39 -48 -13 -14 -23 -28 -23 -32 0 -4 -14 -23 -32 -42 -31 -34 -31 -37 -33 -138 -1 -56 -7 -132 -14 -168 -10 -48 -10 -72 -2 -93 10 -27 14 -28 50 -22 34 6 41 3 60 -21 11 -15 21 -40 21 -56 0 -31 19 -75 55 -123 12 -16 25 -38 29 -49 9 -25 32 -6 40 34 3 17 10 30 16 30 15 0 50 33 50 47 0 19 45 34 80 26 l30 -6 -4 64 c-3 47 0 71 12 91 20 34 25 34 66 3 18 -14 39 -25 47 -25 30 1 79 58 79 92 0 8 -8 23 -18 34 -15 16 -30 57 -47 127 -2 10 -18 36 -35 57 -41 52 -50 103 -21 122 28 17 27 33 -4 64 -17 17 -26 38 -27 60 -1 39 1 39 -58 18 -52 -18 -110 -21 -119 -6 -6 10 -55 33 -69 32 -4 -1 -22 -12 -40 -25z"
     id="path8"
     transform="matrix(0.1,0,0,-0.1,0,1024)"
     style="fill:none;stroke:#000000;stroke-opacity:1;stroke-width:9;stroke-dasharray:none" />
  <path
     d="M702 2508 c-24 -24 -6 -95 36 -148 11 -15 22 -45 23 -70 l4 -45 -38 -3 c-25 -2 -46 3 -66 18 -17 11 -49 27 -72 35 -23 9 -48 20 -54 25 -9 7 -16 6 -24 -4 -19 -23 -89 -53 -156 -67 -33 -7 -74 -19 -92 -26 -38 -15 -36 -38 12 -98 43 -54 75 -109 75 -128 0 -9 -14 -24 -30 -34 -17 -10 -33 -28 -36 -40 -11 -44 -1 -57 63 -76 58 -17 61 -20 69 -55 4 -20 8 -57 9 -82 2 -47 23 -104 40 -106 6 0 26 -8 45 -16 62 -27 75 -31 83 -29 5 1 6 -3 3 -8 -3 -5 1 -15 10 -22 32 -26 47 -73 45 -137 -1 -35 5 -89 14 -120 18 -63 81 -164 144 -230 77 -81 110 -182 82 -254 -5 -13 -15 -65 -22 -116 -10 -74 -10 -101 0 -141 16 -62 65 -189 78 -202 5 -5 32 -12 60 -16 58 -6 100 12 143 61 65 74 162 162 187 167 54 13 80 9 104 -14 26 -24 64 -50 90 -59 9 -4 28 4 44 18 15 13 32 24 37 24 17 0 7 35 -17 60 -20 21 -26 39 -29 86 -2 32 1 70 6 83 6 18 4 29 -8 42 -9 10 -20 16 -24 14 -4 -3 -11 2 -14 11 -3 8 -11 12 -17 8 -7 -4 -9 -3 -6 3 4 6 -9 25 -27 41 -29 26 -35 38 -38 79 l-3 48 40 5 c45 6 48 17 25 98 -8 28 -9 47 -3 53 13 13 113 28 113 18 0 -5 4 -9 10 -9 5 0 8 6 6 12 -1 7 -1 10 1 6 3 -5 12 -8 21 -9 11 0 12 -2 4 -6 -6 -2 -10 -9 -6 -14 8 -13 44 8 44 26 0 8 -4 15 -9 15 -5 0 -8 6 -7 12 0 7 -7 46 -18 86 -17 68 -17 74 -1 98 15 23 22 26 55 21 37 -5 74 10 92 37 8 12 146 14 191 3 19 -5 32 -2 45 10 25 25 89 66 139 90 23 11 39 24 35 28 -4 5 0 4 8 -1 8 -5 65 -12 125 -16 61 -3 123 -9 139 -11 32 -6 56 0 56 15 0 6 15 25 33 43 60 61 82 102 72 135 -6 20 -51 32 -105 29 -127 -6 -166 -2 -208 20 -24 12 -50 20 -58 17 -8 -3 -26 1 -40 10 -19 13 -24 25 -24 59 0 35 -4 45 -21 50 -13 4 -27 1 -38 -9 -25 -22 -59 -20 -108 8 -31 18 -44 21 -53 12 -8 -8 -10 -7 -5 5 7 18 -10 34 -92 83 -60 36 -63 36 -92 21 -17 -8 -33 -15 -36 -15 -3 0 -8 -1 -12 -1 -25 -4 -52 7 -84 32 -43 34 -64 36 -79 9 -23 -43 -200 -11 -200 36 0 9 -19 33 -41 54 -30 28 -40 44 -37 58 6 21 -14 32 -59 32 -12 0 -38 10 -56 23 -19 12 -48 30 -63 39 -16 10 -40 26 -54 37 -21 17 -103 43 -212 65 -15 4 -46 26 -70 50 -54 54 -81 69 -96 54z"
     id="path9"
     transform="matrix(0.1,0,0,-0.1,0,1024)"
     style="fill:none;stroke:#000000;stroke-opacity:1;stroke-width:9;stroke-dasharray:none" />
  <path
     d="M3235 2093 c-8 -7 -18 -14 -22 -13 -7 0 -104 -82 -142 -121 -9 -9 -29 -24 -44 -34 -27 -17 -29 -17 -70 1 -23 10 -61 35 -84 56 -55 49 -85 50 -115 4 -30 -46 -74 -72 -93 -56 -8 6 -20 8 -26 4 -7 -4 -9 -3 -5 4 3 6 -2 16 -13 21 -19 10 -20 7 -23 -79 -3 -94 0 -100 42 -100 10 0 25 -13 33 -28 21 -42 -2 -108 -57 -166 -40 -43 -44 -51 -48 -111 -3 -36 -11 -71 -17 -79 -6 -7 -9 -15 -6 -17 2 -3 -6 -6 -18 -6 -50 -4 -67 -13 -67 -36 0 -12 -11 -43 -25 -69 -28 -53 -33 -119 -11 -141 8 -8 38 -17 68 -21 49 -6 55 -4 76 21 12 16 33 66 47 113 14 47 29 92 34 100 6 11 30 16 89 18 104 4 222 -27 222 -58 0 -11 4 -20 9 -20 5 0 8 -8 7 -17 -1 -15 9 -19 52 -21 46 -3 54 -6 67 -32 8 -16 15 -42 15 -59 0 -16 7 -37 16 -45 21 -22 61 -21 67 2 4 15 5 15 6 -2 1 -16 8 -18 59 -14 31 2 84 16 117 30 228 100 273 115 348 122 56 6 86 14 112 32 20 13 40 24 45 24 5 0 7 14 4 30 -4 19 -2 30 5 30 6 0 11 12 11 26 0 14 -4 22 -10 19 -5 -3 -7 0 -4 9 4 11 -3 17 -21 22 -15 4 -44 25 -64 48 -64 73 -102 106 -122 106 -11 0 -31 12 -46 26 -14 14 -28 23 -31 20 -3 -3 -10 -1 -17 4 -6 5 -27 10 -46 11 -46 3 -59 15 -59 53 0 22 8 40 25 56 14 13 25 31 25 40 0 18 -63 83 -73 75 -4 -3 -5 -2 -2 2 3 3 -4 17 -16 29 -19 20 -20 27 -11 71 12 55 -1 87 -40 96 -13 3 -49 12 -81 20 -50 13 -60 13 -72 0z"
     id="path10"
     transform="matrix(0.1,0,0,-0.1,0,1024)"
     style="fill:none;stroke:#000000;stroke-opacity:1;stroke-width:9;stroke-dasharray:none" />
  <path
     d="M2185 1504 c-67 -35 -78 -46 -64 -56 10 -7 8 -8 -7 -3 -13 3 -26 -1 -35 -11 -23 -28 -70 -43 -98 -33 -13 5 -49 11 -80 12 -45 2 -62 -2 -85 -20 -21 -17 -42 -23 -77 -23 -68 0 -72 -13 -39 -121 31 -97 30 -116 -4 -140 -21 -16 -25 -16 -61 1 -29 14 -44 16 -58 8 -15 -7 -18 -7 -12 2 5 8 1 11 -11 8 -13 -2 -18 -11 -17 -28 3 -32 6 -112 4 -127 -1 -8 -15 -13 -36 -13 -30 0 -35 -3 -35 -22 0 -24 13 -50 24 -49 3 1 6 -2 5 -5 0 -3 22 -23 49 -45 28 -21 52 -45 55 -53 3 -8 3 -46 0 -85 l-6 -70 42 -55 c22 -30 41 -59 41 -64 0 -13 93 -32 156 -32 42 0 70 -8 129 -37 72 -36 77 -37 103 -22 26 15 27 17 28 114 1 76 -4 120 -22 184 -17 62 -20 90 -13 109 10 25 57 90 92 125 10 10 15 23 11 29 -4 6 -3 8 3 5 6 -4 23 10 39 31 15 20 31 38 35 40 4 2 19 14 35 27 15 13 39 29 53 37 39 20 51 40 45 71 -4 17 0 37 10 51 8 13 24 50 35 82 17 54 23 60 59 72 28 9 43 22 50 40 20 52 13 62 -39 62 -26 0 -51 5 -54 10 -10 17 -215 12 -250 -6z"
     id="path11"
     transform="matrix(0.1,0,0,-0.1,0,1024)"
     style="fill:none;stroke:#000000;stroke-opacity:1;stroke-width:9;stroke-dasharray:none" />
</svg>
